#N canvas 416 111 450 300 10;
#X declare -lib mrpeach;
#X obj 295 49 import mrpeach;
#X obj 302 103 udpreceive 4000;
#X msg 189 52 status;
#X obj 173 234 print udpreceive1;
#X obj 173 149 makefilename %c;
#X obj 173 186 s2l;
#X connect 1 0 4 0;
#X connect 2 0 1 0;
#X connect 4 0 5 0;
#X connect 5 0 3 0;
